<svg xmlns="http://www.w3.org/2000/svg" viewBox="-60 -30 340 580">
  <defs><linearGradient id="g" x1="106.751" y1="24" x2="106.751" y2="518" gradientUnits="userSpaceOnUse">
    <stop stop-color="#1ED760"/><stop offset="1" stop-color="#17B04E"/></linearGradient></defs>
  <rect x="-60" y="-30" width="340" height="580" rx="70" fill="#0B0C0E"/>
  <path fill-rule="evenodd" clip-rule="evenodd" d="M144.373 24.0074C150.134 23.8406 154.722 26.3302 157.849 28.9313C160.898 31.4669 163.305 34.6886 165.251 37.8678C172.619 49.9069 178.934 70.9867 184.346 93.6608C189.917 117.003 194.996 144.18 199.282 169.907C203.575 195.671 207.103 220.168 209.557 238.211C210.784 247.236 211.744 254.658 212.397 259.829C212.724 262.414 212.974 264.438 213.143 265.819C213.228 266.509 213.292 267.039 213.336 267.398C213.357 267.577 213.374 267.715 213.386 267.808C213.391 267.854 213.395 267.889 213.398 267.914C213.4 267.926 213.4 267.935 213.401 267.942C213.402 267.945 213.402 267.95 213.402 267.95C213.402 267.95 213.402 267.949 213.173 267.977V267.98L213.403 267.954C213.499 268.756 213.524 269.55 213.484 270.331C213.495 270.552 213.501 270.775 213.501 271C213.501 278.732 207.233 285 199.501 285H119.689C114.526 346.738 109.212 407.967 102.392 450.495C98.8304 472.707 94.5677 491.95 88.7606 503.242C87.2312 506.216 85.2108 509.427 82.4667 512.093C79.6557 514.825 75.3494 517.659 69.622 517.972C63.848 518.289 59.1772 515.907 55.955 513.315C52.8378 510.808 50.3908 507.595 48.4266 504.442C40.9136 492.381 34.5373 471.159 29.1005 448.362C23.499 424.875 18.4148 397.5 14.1366 371.577C9.85203 345.615 6.34388 320.919 3.90809 302.726C2.68962 293.626 1.73842 286.141 1.0907 280.925C0.766867 278.318 0.51887 276.276 0.351445 274.883C0.26775 274.187 0.203888 273.652 0.161015 273.29C0.139616 273.109 0.123188 272.97 0.112187 272.877C0.106749 272.83 0.102347 272.795 0.0994918 272.77C0.0981106 272.758 0.0973263 272.748 0.0965621 272.742C0.0962119 272.739 0.0955855 272.734 0.0955855 272.734C0.0955855 272.734 0.0981835 272.733 0.107304 272.732L0.106328 272.728L0.0955855 272.73C0.0223472 272.102 -0.00812334 271.479 0.0018355 270.864C0.0749132 263.195 6.31431 257 14.0009 257H93.9345C99.1157 195.026 104.438 133.559 111.275 91.0094C114.829 68.8916 119.088 49.7074 124.916 38.5035C126.453 35.5488 128.5 32.3342 131.301 29.6803C134.189 26.9429 138.591 24.1749 144.373 24.0074ZM29.828 285C30.3442 289.034 30.9564 293.748 31.661 299.01C34.0726 317.023 37.5394 341.422 41.7636 367.017C45.9941 392.651 50.9533 419.298 56.3358 441.867C60.1949 458.048 64.0557 471.137 67.6503 480.177C69.993 472.111 72.3979 460.703 74.746 446.061C81.2904 405.251 86.4689 346.16 91.5907 285H29.828ZM145.868 61.9733C143.578 69.9286 141.224 81.1169 138.921 95.4518C132.361 136.275 127.174 195.591 122.033 257H183.805C183.255 252.76 182.588 247.698 181.811 241.983C179.382 224.118 175.896 199.913 171.663 174.508C167.424 149.066 162.467 122.603 157.11 100.161C153.271 84.0763 149.436 71.0241 145.868 61.9733Z" fill="url(#g)"/>
</svg>